<svg width="171" height="48" viewBox="0 0 171 48" fill="none" xmlns="http://www.w3.org/2000/svg">
<path fill-rule="evenodd" clip-rule="evenodd" d="M58.7657 48H67.1657L33.6 0L21.3943 17.4483L15.0857 7.35567L10.7314 13.5823L28.8 41.8418L12.7543 41.7733L17.3143 35.2046L13.3371 28.9779L4.38857 41.7391H4.35429L0 48H8.4H8.43429H40.4914L25.3371 23.7434L33.6 11.8717L58.7657 48Z" fill="white"/>
<path d="M75.0746 21.2573H80.0474C84.4634 21.2573 87.0554 18.4733 87.0554 14.4605C87.0554 10.4285 84.2906 7.62526 79.9898 7.62526H75.0746V21.2573ZM78.6074 18.0125V10.8701H80.0666C81.8522 10.8701 83.2346 12.4253 83.2346 14.4605C83.2346 16.4189 81.8714 18.0125 79.7978 18.0125H78.6074Z" fill="white"/>
<path d="M92.5664 21.2573H96.3296V7.62526H92.5664V21.2573Z" fill="white"/>
<path d="M108.955 21.4301C111.067 21.4301 113.198 20.7005 114.427 19.7789V13.4429H108.667V16.3805H110.99V17.6477C110.261 17.9741 109.665 18.0893 108.955 18.0893C106.843 18.0893 105.653 16.4189 105.653 14.4605C105.653 12.1373 107.131 10.8509 108.801 10.8509C110.222 10.8509 111.221 11.5229 111.835 12.1181L114.427 9.94846C113.045 8.29726 110.798 7.41406 108.801 7.41406C104.366 7.41406 101.832 10.5245 101.832 14.4605C101.832 18.9533 105 21.4301 108.955 21.4301Z" fill="white"/>
<path d="M120.121 21.2573H123.885V7.62526H120.121V21.2573Z" fill="white"/>
<path d="M132.555 21.2573H136.299V10.8701H139.697V7.62526H129.156V10.8701H132.555V21.2573Z" fill="white"/>
<path d="M142.437 21.2573H146.258L146.949 19.0493H151.327L152.018 21.2573H155.82L150.885 7.62526H147.391L142.437 21.2573ZM147.89 15.9965L149.119 12.0605H149.157L150.386 15.9965H147.89Z" fill="white"/>
<path d="M160.646 21.2573H169.727V18.0125H164.409V7.62526H160.646V21.2573Z" fill="white"/>
<path d="M74.0186 40.4573H77.8394L78.5306 38.2493H82.9082L83.5994 40.4573H87.401L82.4666 26.8253H78.9722L74.0186 40.4573ZM79.4714 35.1965L80.7002 31.2605H80.7386L81.9674 35.1965H79.4714Z" fill="white"/>
<path d="M98.1212 40.6301C100.233 40.6301 102.364 39.9005 103.593 38.9789V32.6429H97.8332V35.5805H100.156V36.8477C99.4268 37.1741 98.8316 37.2893 98.1212 37.2893C96.0092 37.2893 94.8188 35.6189 94.8188 33.6605C94.8188 31.3373 96.2972 30.0509 97.9676 30.0509C99.3884 30.0509 100.387 30.7229 101.001 31.3181L103.593 29.1485C102.211 27.4973 99.9644 26.6141 97.9676 26.6141C93.5324 26.6141 90.998 29.7245 90.998 33.6605C90.998 38.1533 94.166 40.6301 98.1212 40.6301Z" fill="white"/>
<path d="M109.192 40.4573H118.657V37.2125H112.724V35.2349H117.044V32.1245H112.724V30.0701H118.254V26.8253H109.192V40.4573Z" fill="white"/>
<path d="M124.076 40.4573H127.647V32.9885H127.685L132.409 40.4573H135.999V26.8253H132.409V34.5245L132.37 34.5437L127.551 26.8253H124.076V40.4573Z" fill="white"/>
<path d="M148.547 40.6493C150.967 40.6493 152.925 39.4973 154.096 38.0573L151.427 35.7533C150.698 36.6365 149.68 37.1357 148.547 37.1357C146.493 37.1357 145.264 35.5229 145.264 33.6605C145.264 31.3565 146.858 30.1277 148.547 30.1277C149.815 30.1277 150.851 30.8957 151.427 31.5485L154.096 29.2637C152.56 27.4013 150.41 26.6141 148.547 26.6141C143.997 26.6141 141.424 29.7437 141.424 33.6605C141.424 38.2109 144.515 40.6493 148.547 40.6493Z" fill="white"/>
<path d="M162.526 40.4573H166.251V34.5629L170.667 26.8253H166.443L164.427 30.9725H164.388L162.315 26.8253H158.129L162.526 34.5629V40.4573Z" fill="white"/>
</svg>
